<?xml version="1.0" encoding="UTF-8"?>
<svg version="1.1" xmlns="http://www.w3.org/2000/svg" width="960" height="396">
<path d="M0 0 C1.94365448 -0.0099852 1.94365448 -0.0099852 3.92657471 -0.02017212 C6.66332328 -0.03210279 9.39994604 -0.03585745 12.13671875 -0.03466797 C15.61424431 -0.0344653 19.09094786 -0.06173055 22.56827927 -0.09621239 C25.92052894 -0.12403293 29.2726368 -0.122636 32.625 -0.125 C33.85869324 -0.13937103 35.09238647 -0.15374207 36.36346436 -0.16854858 C45.21108413 -0.12232617 53.69365955 1.12710894 60.953125 6.5859375 C64.83572686 10.65342516 67.79466932 14.98557045 69.578125 20.3359375 C69.9184375 19.69527344 70.25875 19.05460937 70.609375 18.39453125 C75.66413395 9.37393749 80.58086908 3.89582204 90.60159302 0.97868347 C96.08109737 -0.20454902 101.56026299 -0.09050971 107.14453125 -0.0625 C108.41860336 -0.06537018 109.69267548 -0.06824036 111.00535583 -0.07119751 C113.68577346 -0.07322974 116.36535713 -0.06929449 119.0456543 -0.05517578 C122.45705728 -0.03806785 125.86775273 -0.04795493 129.27912998 -0.06589317 C132.56762137 -0.07942279 135.85603058 -0.06991377 139.14453125 -0.0625 C140.96362755 -0.07160904 140.96362755 -0.07160904 142.81947327 -0.0809021 C152.9847713 0.00281354 161.59458302 1.58704423 169.171875 8.8671875 C176.52738284 16.79959791 177.01476526 24.81242826 176.93888855 35.21862793 C176.94145182 36.50769877 176.9440151 37.79676961 176.94665605 39.1249032 C176.95333917 42.68702494 176.9413986 46.2488742 176.92632186 49.81096125 C176.91333419 53.65816365 176.91775289 57.50535141 176.92002869 61.35256958 C176.9215997 68.01284915 176.91220852 74.67304038 176.89531517 81.33329773 C176.87090636 90.96282897 176.86311798 100.59231761 176.8593512 110.22187644 C176.85278967 125.84618402 176.83283659 141.47044453 176.80444336 157.09472656 C176.77689507 172.26985438 176.75566526 187.4449694 176.74291992 202.62011719 C176.74173767 204.02383942 176.74173767 204.02383942 176.74053153 205.45591968 C176.73661634 210.1507529 176.73282523 214.84558621 176.72909582 219.54041958 C176.69800919 258.47230069 176.64271111 297.40409473 176.578125 336.3359375 C157.438125 336.3359375 138.298125 336.3359375 118.578125 336.3359375 C118.578125 239.9759375 118.578125 143.6159375 118.578125 44.3359375 C111.978125 44.3359375 105.378125 44.3359375 98.578125 44.3359375 C98.578125 140.6959375 98.578125 237.0559375 98.578125 336.3359375 C79.438125 336.3359375 60.298125 336.3359375 40.578125 336.3359375 C40.578125 239.9759375 40.578125 143.6159375 40.578125 44.3359375 C34.308125 44.3359375 28.038125 44.3359375 21.578125 44.3359375 C21.578125 140.6959375 21.578125 237.0559375 21.578125 336.3359375 C2.108125 336.3359375 -17.361875 336.3359375 -37.421875 336.3359375 C-37.46597128 296.99696367 -37.50289757 257.65801315 -37.52400566 218.31902168 C-37.52650705 213.67402547 -37.5290957 209.02902933 -37.53173828 204.3840332 C-37.5322629 203.45930342 -37.53278752 202.53457363 -37.53332804 201.58182173 C-37.54202914 186.61141839 -37.55779751 171.64103041 -37.57618059 156.67063618 C-37.59488782 141.3080751 -37.60599347 125.94552206 -37.61005199 110.58295006 C-37.61279533 101.10448077 -37.62145809 91.62605494 -37.63770793 82.14759903 C-37.64828496 75.64666607 -37.65147399 69.14575556 -37.64887775 62.64481462 C-37.64759759 58.89490144 -37.6495514 55.14506415 -37.66028595 51.39516449 C-37.67184986 47.32573586 -37.66784423 43.25646834 -37.66238403 39.18702698 C-37.66820972 38.00704858 -37.6740354 36.82707018 -37.68003762 35.61133486 C-37.64042082 24.68990057 -36.57257385 17.02881517 -29.046875 8.7109375 C-19.88607629 0.42259581 -11.86609994 0.02126748 0 0 Z " fill="#000000" transform="translate(547.421875,59.6640625)"/>
<path d="M0 0 C1.94365448 -0.0099852 1.94365448 -0.0099852 3.92657471 -0.02017212 C6.66332328 -0.03210279 9.39994604 -0.03585745 12.13671875 -0.03466797 C15.61424431 -0.0344653 19.09094786 -0.06173055 22.56827927 -0.09621239 C25.92052894 -0.12403293 29.2726368 -0.122636 32.625 -0.125 C33.85869324 -0.13937103 35.09238647 -0.15374207 36.36346436 -0.16854858 C45.13044348 -0.12274746 53.01134385 1.09457272 60.296875 6.265625 C68.578125 15.30962171 68.578125 15.30962171 68.578125 21.3359375 C69.238125 21.3359375 69.898125 21.3359375 70.578125 21.3359375 C70.69994141 20.00949219 70.69994141 20.00949219 70.82421875 18.65625 C72.25668406 12.34746496 77.5243025 7.38071725 82.8125 3.83984375 C88.08183253 1.13584416 92.51635947 0.21517514 98.36547852 0.15893555 C99.5309169 0.14610031 100.69635529 0.13326508 101.89710999 0.12004089 C103.154384 0.11265396 104.41165802 0.10526703 105.70703125 0.09765625 C107.00704575 0.0895845 108.30706024 0.08151276 109.64646912 0.07319641 C112.40111152 0.05819038 115.15572839 0.0483446 117.91040039 0.04077148 C121.4115048 0.02975823 124.91196466 -0.00458965 128.41284275 -0.04440022 C131.78171068 -0.07710414 135.15051703 -0.0813662 138.51953125 -0.08984375 C140.38418785 -0.11610588 140.38418785 -0.11610588 142.28651428 -0.14289856 C152.21896583 -0.11842869 161.62544529 1.50395239 169.078125 8.5625 C174.5191167 14.99533915 176.70452605 21.47093437 176.70117283 29.82379627 C176.70316388 30.92057093 176.70515493 32.0173456 176.70720631 33.14735585 C176.70429347 34.34676752 176.70138063 35.54617918 176.69837952 36.78193665 C176.69966115 38.69944734 176.69966115 38.69944734 176.70096868 40.65569562 C176.70320468 44.20170123 176.69920458 47.74767664 176.69419062 51.2936784 C176.68987348 55.11843879 176.69133345 58.94319746 176.6920929 62.76795959 C176.69261733 69.39388241 176.68947894 76.01979538 176.68385506 82.64571571 C176.67572915 92.22569233 176.67312371 101.80566418 176.67186707 111.38564386 C176.66967827 126.92840395 176.66302283 142.47115878 176.65356445 158.01391602 C176.6443859 173.11254856 176.63730723 188.21117968 176.63305664 203.30981445 C176.63279392 204.24044346 176.63253119 205.17107246 176.63226051 206.12990234 C176.63095547 210.79857939 176.62969177 215.46725645 176.62844861 220.13593352 C176.61808135 258.86927284 176.59964591 297.60260246 176.578125 336.3359375 C157.438125 336.3359375 138.298125 336.3359375 118.578125 336.3359375 C118.578125 239.9759375 118.578125 143.6159375 118.578125 44.3359375 C111.978125 44.3359375 105.378125 44.3359375 98.578125 44.3359375 C98.578125 140.6959375 98.578125 237.0559375 98.578125 336.3359375 C79.438125 336.3359375 60.298125 336.3359375 40.578125 336.3359375 C40.578125 239.9759375 40.578125 143.6159375 40.578125 44.3359375 C33.978125 44.3359375 27.378125 44.3359375 20.578125 44.3359375 C20.578125 140.6959375 20.578125 237.0559375 20.578125 336.3359375 C1.438125 336.3359375 -17.701875 336.3359375 -37.421875 336.3359375 C-37.48801894 296.74217315 -37.54340854 257.14846093 -37.57507099 217.55465714 C-37.57882308 212.87961833 -37.58270605 208.20457964 -37.58666992 203.52954102 C-37.58745685 202.59883 -37.58824378 201.66811899 -37.58905456 200.70920461 C-37.60210637 185.64179328 -37.62575898 170.57441632 -37.65333339 155.50702537 C-37.68139384 140.04502438 -37.69805262 124.58304137 -37.70414048 109.12101597 C-37.70825559 99.58110436 -37.72125014 90.04128987 -37.7456244 80.50140815 C-37.76148948 73.95841967 -37.76627361 67.41548135 -37.76237913 60.87247504 C-37.76045879 57.09822184 -37.76339038 53.3241383 -37.77949142 49.54991531 C-37.7968362 45.4541512 -37.79082936 41.35874727 -37.78263855 37.26295471 C-37.79137707 36.07519442 -37.8001156 34.88743412 -37.80911893 33.66368109 C-37.75320599 23.32253066 -35.76901536 14.91474445 -28.421875 7.3359375 C-19.65883222 0.31837885 -10.85528763 0.01945581 0 0 Z " fill="#000000" transform="translate(326.421875,59.6640625)"/>
<path d="M0 0 C19.47 0 38.94 0 59 0 C59 19.8 59 39.6 59 60 C76.36623143 59.88157142 76.36623143 59.88157142 93.73217773 59.72973633 C95.92431193 59.72096684 98.11645105 59.713324 100.30859375 59.70703125 C101.42850708 59.69168335 102.54842041 59.67633545 103.70227051 59.66052246 C113.3474819 59.65732974 121.73653849 61.2799396 129 68 C133.87825481 73.52523821 136.25202615 79.20313331 136.24609566 86.65775871 C136.25007775 87.76697461 136.25405985 88.87619051 136.25816262 90.01901901 C136.25233693 91.22719067 136.24651125 92.43536234 136.24050903 93.68014526 C136.24221788 94.97159081 136.24392673 96.26303635 136.24568737 97.5936166 C136.25015405 101.17160133 136.24216658 104.74946605 136.23213124 108.32743549 C136.22348925 112.18830672 136.22641743 116.04917126 136.22793579 119.91004944 C136.22898417 126.59708126 136.2227125 133.28407404 136.21146011 139.97109604 C136.19520168 149.63938559 136.18999675 159.30765627 136.18748413 168.975958 C136.18310757 184.66236812 136.16979951 200.34875743 136.15087891 216.03515625 C136.13251911 231.27245988 136.11836309 246.50975785 136.10986328 261.74707031 C136.10933783 262.68639758 136.10881239 263.62572484 136.10827102 264.59351657 C136.10566093 269.30587518 136.10313352 274.01823382 136.10064721 278.73059249 C136.07991592 317.82041347 136.0430468 356.91019597 136 396 C116.86 396 97.72 396 78 396 C78 299.64 78 203.28 78 104 C71.73 104 65.46 104 59 104 C59 200.36 59 296.72 59 396 C39.53 396 20.06 396 0 396 C0 265.32 0 134.64 0 0 Z " fill="#020202" transform="translate(0,0)"/>
<path d="M0 0 C1.26206268 -0.0098568 1.26206268 -0.0098568 2.54962158 -0.01991272 C5.32653912 -0.03957735 8.10340268 -0.05129449 10.88037109 -0.0612793 C12.3091968 -0.06739259 12.3091968 -0.06739259 13.76688766 -0.07362938 C18.8110609 -0.09446331 23.85520716 -0.1087753 28.89941406 -0.11816406 C34.08750327 -0.12920902 39.27516132 -0.16359464 44.46309853 -0.20333576 C48.47135164 -0.22958733 52.47950343 -0.23786357 56.48783493 -0.24144554 C58.39904052 -0.24629122 60.3102422 -0.25784704 62.22136307 -0.27648354 C73.90165821 -0.38328547 83.69433717 -0.20737594 93.84130859 6.30200195 C100.08457724 12.98084749 103.6559312 19.72256961 103.64906311 28.87773132 C103.65034475 29.9045061 103.65034475 29.9045061 103.65165228 30.9520238 C103.65330219 33.2505944 103.64779369 35.54909236 103.64233398 37.84765625 C103.64205198 39.49339801 103.6422101 41.1391399 103.64277649 42.78488159 C103.64306395 47.25771277 103.63717545 51.73051724 103.63020253 56.2033422 C103.62396051 60.87586059 103.62336452 65.54837957 103.62217712 70.22090149 C103.61906632 79.07125773 103.61085629 87.92160164 103.60082763 96.77195245 C103.58757122 108.72983085 103.58216457 120.68771261 103.57632542 132.6455965 C103.56691625 151.48940755 103.54699565 170.3331926 103.52880859 189.17700195 C77.78880859 189.17700195 52.04880859 189.17700195 25.52880859 189.17700195 C25.52880859 222.83700195 25.52880859 256.49700195 25.52880859 291.17700195 C32.12880859 291.17700195 38.72880859 291.17700195 45.52880859 291.17700195 C45.52880859 261.47700195 45.52880859 231.77700195 45.52880859 201.17700195 C64.66880859 201.17700195 83.80880859 201.17700195 103.52880859 201.17700195 C103.64913502 229.05708098 103.64913502 229.05708098 103.67529297 240.9543457 C103.69321635 249.06785025 103.71395423 257.18125386 103.75512695 265.29467773 C103.78831056 271.83692021 103.80566946 278.37909457 103.81344032 284.92141724 C103.81897724 287.41563636 103.82978946 289.90984962 103.84599876 292.40402222 C103.86782086 295.90139606 103.87077344 299.39832083 103.86938477 302.89575195 C103.88017059 303.9236232 103.89095642 304.95149445 103.90206909 306.01051331 C103.86351245 315.00268507 101.83871198 321.64861889 95.62646484 328.34887695 C88.087337 334.91929005 79.88256839 336.32794142 70.19360352 336.32226562 C69.36691666 336.32562424 68.5402298 336.32898285 67.68849182 336.33244324 C64.9620716 336.34192325 62.23571301 336.34389493 59.50927734 336.3449707 C57.60744705 336.34818557 55.70561701 336.35154981 53.80378723 336.35505676 C49.81848579 336.36104082 45.83320601 336.36289743 41.84790039 336.36230469 C36.75381656 336.36220316 31.65987241 336.37584882 26.56582165 336.3930769 C22.63747018 336.40422364 18.70915218 336.40622306 14.78078651 336.40569496 C12.90341015 336.40687129 11.02603282 336.41127353 9.1486721 336.41902733 C6.51641582 336.42888032 3.88445889 336.42592822 1.25219727 336.41992188 C0.48465118 336.42554138 -0.2828949 336.43116089 -1.07369995 336.43695068 C-10.46428751 336.38279984 -18.11498656 333.91657825 -25.20166016 327.64575195 C-32.51338996 319.99100272 -32.9147767 310.19785631 -32.85887146 300.11488342 C-32.864257 298.93803732 -32.86964254 297.76119121 -32.87519127 296.54868311 C-32.88695837 293.30874981 -32.88543007 290.06914998 -32.87802446 286.82921422 C-32.87327238 283.32469221 -32.88582053 279.82022405 -32.89604187 276.3157196 C-32.91319507 269.46063279 -32.91407718 262.60563778 -32.90882897 255.75053508 C-32.90477976 250.17639238 -32.90623972 244.60227672 -32.91157722 239.0281353 C-32.91232565 238.23336211 -32.91307407 237.43858893 -32.91384517 236.61973171 C-32.91537672 235.00491408 -32.91691507 233.39009647 -32.91846014 231.77527886 C-32.93217244 216.64879141 -32.92675629 201.52235574 -32.91527493 186.39586949 C-32.9053425 172.57198487 -32.91828561 158.7482341 -32.94220912 144.92437012 C-32.966619 130.71182054 -32.97620343 116.49933325 -32.96955639 102.28676313 C-32.96606854 94.31473773 -32.96826755 86.34281524 -32.98580742 78.37080574 C-33.00055301 71.58497266 -33.00113411 64.79931499 -32.98373651 58.01348526 C-32.97524366 54.55481306 -32.97303443 51.09645391 -32.98838806 47.63779831 C-33.00160332 43.88027316 -32.99004394 40.12359329 -32.97239685 36.36610413 C-32.98200186 35.28437347 -32.99160686 34.20264281 -33.00150293 33.08813244 C-32.91134537 23.72767312 -30.85320772 14.6545877 -24.24462891 7.67700195 C-16.75507058 1.34222134 -9.58747687 0.03273181 0 0 Z M25.52880859 44.17700195 C25.52880859 78.82700195 25.52880859 113.47700195 25.52880859 149.17700195 C32.12880859 149.17700195 38.72880859 149.17700195 45.52880859 149.17700195 C45.52880859 114.52700195 45.52880859 79.87700195 45.52880859 44.17700195 C38.92880859 44.17700195 32.32880859 44.17700195 25.52880859 44.17700195 Z " fill="#000000" transform="translate(766.47119140625,59.822998046875)"/>
<path d="M0 0 C13.51758196 -0.09051175 27.03496133 -0.16383784 40.55277824 -0.20724869 C46.83022227 -0.22808787 53.1074475 -0.25633894 59.38476562 -0.30175781 C65.4472378 -0.34534571 71.50950002 -0.36916469 77.57211685 -0.37950897 C79.88048734 -0.38687707 82.18884686 -0.40126511 84.49712753 -0.42292023 C87.74035874 -0.45212556 90.98273184 -0.45594876 94.22607422 -0.45410156 C95.17194901 -0.46848267 96.11782379 -0.48286377 97.09236145 -0.49768066 C105.94021448 -0.44345693 113.89221786 2.12780591 120.46484375 8.21875 C125.23846814 13.75761188 128.12596007 19.96618448 128.12304783 27.27299786 C128.12503888 28.37275721 128.12702993 29.47251657 128.12908131 30.60560197 C128.12616847 31.81862121 128.12325563 33.03164045 128.12025452 34.28141785 C128.12153615 36.20861592 128.12153615 36.20861592 128.12284368 38.17474729 C128.12508541 41.74807462 128.12107174 45.32137211 128.11606562 48.89469564 C128.11175671 52.74539463 128.11320786 56.59609188 128.1139679 60.4467926 C128.11449285 67.12076912 128.11134902 73.79473588 128.10573006 80.46870995 C128.09761121 90.11821673 128.09499944 99.76771879 128.09374207 109.41722862 C128.09155215 125.07201902 128.08489371 140.72680422 128.07543945 156.3815918 C128.06626377 171.59090143 128.0591837 186.80020965 128.05493164 202.00952148 C128.05466892 202.94664993 128.05440619 203.88377837 128.05413551 204.84930464 C128.05283049 209.5504911 128.05156678 214.25167757 128.05032361 218.95286405 C128.03995288 257.96857968 128.02233621 296.9842895 128 336 C113.70014124 336.07025812 99.40030946 336.12287034 85.10031319 336.15543652 C78.45970112 336.17106938 71.81925624 336.19226428 65.17871094 336.22631836 C58.76612078 336.25899636 52.35364221 336.27687093 45.94097519 336.28463173 C43.49864827 336.29016006 41.05632722 336.30095546 38.614048 336.31719017 C35.18413509 336.33907619 31.75467892 336.3419622 28.32470703 336.34057617 C26.8217382 336.35675491 26.8217382 336.35675491 25.28840637 336.3732605 C15.24845676 336.32957167 6.2955545 334.24868798 -1 327 C-6.88584678 319.61383933 -8.14917706 314.37364136 -8.14717102 305.00643921 C-8.15084771 304.08719433 -8.1545244 303.16794946 -8.1583125 302.22084868 C-8.16934606 299.13339219 -8.17319264 296.04596935 -8.17700195 292.95849609 C-8.18326687 290.74755751 -8.1899137 288.53661997 -8.19691467 286.32568359 C-8.21795481 279.05827569 -8.22831731 271.79086757 -8.23828125 264.5234375 C-8.24232888 262.02120579 -8.2464458 259.51897419 -8.25063133 257.01674271 C-8.26750015 246.60762293 -8.28213456 236.19850473 -8.28938007 225.7893734 C-8.29128985 223.08956272 -8.2932102 220.38975205 -8.29516602 217.68994141 C-8.29564976 217.01894758 -8.2961335 216.34795375 -8.2966319 215.65662678 C-8.30492755 204.79335296 -8.33025745 193.93018941 -8.36274669 183.06696372 C-8.39585759 171.90453067 -8.41350001 160.74213747 -8.41702431 149.57965147 C-8.41937415 143.31613338 -8.4283263 137.05278962 -8.45348549 130.78931808 C-8.47678182 124.89433696 -8.48099295 118.99964476 -8.47072411 113.10462952 C-8.47022901 110.94476485 -8.47654152 108.78488588 -8.49028015 106.62506485 C-8.50803164 103.66818695 -8.50087657 100.71234231 -8.48774719 97.75546265 C-8.50420106 96.48421651 -8.50420106 96.48421651 -8.52098733 95.18728864 C-8.43604423 87.22157215 -6.18623195 80.06667703 -0.75 74.125 C5.0158385 68.85621654 11.67169505 65.86892516 19.48120117 65.88647461 C20.60213669 65.88655014 21.7230722 65.88662567 22.87797546 65.88670349 C24.08742325 65.89186478 25.29687103 65.89702606 26.54296875 65.90234375 C27.78170242 65.9037587 29.0204361 65.90517365 30.29670715 65.90663147 C33.58631537 65.91128398 36.8758746 65.9202661 40.16546631 65.93133545 C43.52371623 65.94157371 46.88197333 65.94613426 50.24023438 65.95117188 C56.8268446 65.96220855 63.41341278 65.9794771 70 66 C70 58.74 70 51.48 70 44 C46.9 44 23.8 44 0 44 C0 29.48 0 14.96 0 0 Z M50 109 C50 169.06 50 229.12 50 291 C56.6 291 63.2 291 70 291 C70 230.94 70 170.88 70 109 C63.4 109 56.8 109 50 109 Z " fill="#000000" transform="translate(152,60)"/>
<path d="M0 0 C1.29400223 0.00565979 2.58800446 0.01131958 3.92121887 0.01715088 C7.32280733 0.03225416 10.7236871 0.07139759 14.125 0.1159668 C17.61122892 0.15725539 21.09757839 0.17545366 24.58398438 0.1953125 C31.39645442 0.23577861 38.20699131 0.31410349 45.01953125 0.390625 C45.01953125 14.910625 45.01953125 29.430625 45.01953125 44.390625 C37.09953125 44.390625 29.17953125 44.390625 21.01953125 44.390625 C21.01953125 140.750625 21.01953125 237.110625 21.01953125 336.390625 C1.87953125 336.390625 -17.26046875 336.390625 -36.98046875 336.390625 C-37.09072134 296.43169272 -37.18303234 256.47290403 -37.2357954 216.51386315 C-37.24204884 211.79504913 -37.24852046 207.07623542 -37.25512695 202.35742188 C-37.25643851 201.41800133 -37.25775006 200.47858078 -37.25910135 199.51069294 C-37.28085076 184.30489486 -37.32026973 169.09919141 -37.36623273 153.89344944 C-37.41301029 138.28793581 -37.4407669 122.68247169 -37.45091122 107.07689083 C-37.45776768 97.44938587 -37.47941367 87.8221484 -37.52005108 78.1947258 C-37.54650549 71.59050574 -37.55446364 64.98642372 -37.54797564 58.38215454 C-37.54477692 54.57323109 -37.54963828 50.76477468 -37.57649612 46.95593452 C-37.60544017 42.82091546 -37.5953842 38.686886 -37.58174133 34.55178833 C-37.59630554 33.35526803 -37.61086975 32.15874773 -37.62587529 30.92596924 C-37.54187593 21.49953658 -34.99175298 14.68734737 -28.85546875 7.515625 C-20.74551522 0.11322405 -10.43108484 -0.17454605 0 0 Z " fill="#000000" transform="translate(914.98046875,59.609375)"/>
<path d="M0 0 C2.64 0 5.28 0 8 0 C8 14.52 8 29.04 8 44 C5.36 44 2.72 44 0 44 C0 29.48 0 14.96 0 0 Z " fill="#FFFFFF" transform="translate(952,60)"/>
</svg>
